<?xml version="1.0" encoding="utf-8"?>
<!-- Generator: Adobe Illustrator 16.0.0, SVG Export Plug-In . SVG Version: 6.00 Build 0)  -->
<!DOCTYPE svg PUBLIC "-//W3C//DTD SVG 1.1//EN" "http://www.w3.org/Graphics/SVG/1.1/DTD/svg11.dtd">
<svg version="1.1" xmlns="http://www.w3.org/2000/svg" xmlns:xlink="http://www.w3.org/1999/xlink" x="0px" y="0px" width="30px"
	 height="30px" viewBox="0 0 30 30" enable-background="new 0 0 30 30" xml:space="preserve">
<g id="背景" display="none">
	<rect display="inline" fill="#231815" width="30" height="30"/>
</g>
<g id="コンパス" display="none">
	<g display="inline">
		<path fill="#8F9491" d="M15,6c-3.107,0-5.625,2.519-5.625,5.625C9.375,16.996,15,24,15,24s5.625-7.004,5.625-12.375
			C20.625,8.519,18.106,6,15,6z M15,14.73c-1.678,0-3.039-1.359-3.039-3.038c0-1.676,1.361-3.037,3.039-3.037
			c1.677,0,3.039,1.36,3.039,3.037C18.039,13.371,16.677,14.73,15,14.73z"/>
	</g>
</g>
<g id="PDF" display="none">
	<path display="inline" fill="#8F9491" d="M20.636,16.323c-0.234-0.23-0.751-0.352-1.536-0.36c-0.533-0.007-1.175,0.04-1.848,0.134
		c-0.303-0.175-0.613-0.363-0.858-0.591c-0.655-0.614-1.204-1.466-1.546-2.401c0.022-0.088,0.042-0.164,0.06-0.242
		c0,0,0.369-2.102,0.271-2.813c-0.014-0.097-0.021-0.125-0.049-0.201l-0.031-0.082c-0.101-0.232-0.297-0.479-0.606-0.465
		l-0.182-0.005l-0.006-0.001c-0.344,0-0.625,0.177-0.7,0.44c-0.224,0.826,0.008,2.063,0.427,3.666l-0.107,0.261
		c-0.3,0.733-0.677,1.47-1.009,2.121l-0.043,0.083c-0.349,0.685-0.666,1.265-0.953,1.756l-0.297,0.157
		c-0.021,0.013-0.531,0.281-0.649,0.353c-1.012,0.605-1.683,1.291-1.793,1.836c-0.035,0.172-0.01,0.395,0.17,0.497l0.287,0.146
		c0.125,0.063,0.256,0.095,0.39,0.095c0.722,0,1.559-0.897,2.71-2.91c1.331-0.434,2.846-0.794,4.175-0.991
		c1.012,0.569,2.257,0.965,3.042,0.965c0.14,0,0.258-0.014,0.357-0.04c0.151-0.039,0.277-0.126,0.354-0.241
		c0.152-0.23,0.184-0.547,0.142-0.869C20.795,16.523,20.718,16.404,20.636,16.323z M9.87,20.157
		c0.132-0.359,0.651-1.068,1.422-1.699c0.048-0.04,0.168-0.151,0.276-0.254C10.765,19.486,10.226,19.998,9.87,20.157z M14.426,9.667
		c0.233,0,0.364,0.584,0.376,1.131c0.01,0.548-0.118,0.932-0.277,1.216c-0.132-0.42-0.194-1.083-0.194-1.518
		C14.33,10.496,14.319,9.667,14.426,9.667z M13.067,17.143c0.161-0.287,0.329-0.594,0.502-0.916c0.416-0.791,0.681-1.41,0.879-1.918
		c0.39,0.711,0.879,1.316,1.45,1.801c0.072,0.062,0.148,0.123,0.227,0.184C14.961,16.522,13.953,16.801,13.067,17.143z
		 M20.411,17.077c-0.07,0.045-0.274,0.07-0.405,0.07c-0.422,0-0.943-0.192-1.674-0.507c0.281-0.021,0.538-0.031,0.769-0.031
		c0.423,0,0.548-0.003,0.964,0.105C20.477,16.817,20.482,17.033,20.411,17.077z M21.684,9.663l-2.438-2.44
		c-0.533-0.53-1.582-0.965-2.334-0.965H8.716c-0.752,0-1.366,0.614-1.366,1.366v14.753c0,0.751,0.614,1.365,1.366,1.365h12.569
		c0.75,0,1.365-0.614,1.365-1.365V11.995C22.65,11.244,22.215,10.193,21.684,9.663z M20.911,10.437
		c0.053,0.053,0.106,0.118,0.158,0.193h-2.792V7.838c0.076,0.053,0.141,0.105,0.195,0.158L20.911,10.437z M21.558,22.377
		c0,0.148-0.126,0.273-0.272,0.273H8.716c-0.148,0-0.273-0.125-0.273-0.273V7.624c0-0.148,0.125-0.273,0.273-0.273h8.196
		c0.084,0,0.176,0.01,0.273,0.029v4.343h4.342c0.02,0.097,0.03,0.19,0.03,0.272V22.377z"/>
</g>
<g id="ダウンロード" display="none">
	<path display="inline" fill="#8F9491" d="M15,15.547l4.372-4.372h-3.279V6.804h-2.186v4.372h-3.278L15,15.547z M18.975,13.758
		l-1.227,1.225l4.442,1.655L15,19.32l-7.19-2.682l4.443-1.655l-1.227-1.225l-4.769,1.789v4.371L15,23.196l8.742-3.278v-4.371
		L18.975,13.758z"/>
</g>
<g id="検索" display="none">
	<g display="inline">
		<path fill="#8F9491" d="M11.877,7.506c2.41,0,4.37,1.961,4.37,4.372c0,2.409-1.96,4.371-4.37,4.371
			c-2.409,0-4.371-1.962-4.371-4.371C7.506,9.468,9.468,7.506,11.877,7.506 M11.877,6.257c-3.102,0-5.62,2.517-5.62,5.621
			c0,3.104,2.518,5.62,5.62,5.62c3.105,0,5.621-2.517,5.621-5.62C17.498,8.774,14.982,6.257,11.877,6.257L11.877,6.257z"/>
		<path fill="#8F9491" d="M23.352,20.506c0.521,0.522,0.521,1.377,0,1.896l-0.949,0.949c-0.522,0.521-1.375,0.521-1.896,0
			l-4.07-4.069c-0.52-0.522-0.52-1.376,0-1.896l0.949-0.951c0.521-0.52,1.375-0.52,1.896,0L23.352,20.506z"/>
	</g>
</g>
<g id="次へ" display="none">
	<polygon display="inline" fill="#8F9491" points="8.571,6 21.429,15 8.571,24 	"/>
</g>
<g id="前へ" display="none">
	<polygon display="inline" fill="#8F9491" points="21.429,24 8.571,15 21.429,6 	"/>
</g>
<g id="カレンダー" display="none">
	<g display="inline">
		<path fill="#8F9491" d="M22.037,7.46h-2.908V6.547C19.129,6.245,18.883,6,18.581,6s-0.547,0.245-0.547,0.547V7.46h-5.886V6.547
			C12.148,6.245,11.903,6,11.601,6c-0.302,0-0.546,0.245-0.546,0.547V7.46H7.961c-0.302,0-0.547,0.245-0.547,0.547v15.446
			C7.414,23.756,7.66,24,7.961,24h14.076c0.303,0,0.549-0.244,0.549-0.547V8.007C22.586,7.705,22.34,7.46,22.037,7.46z
			 M21.043,22.458H8.956v-9.509h12.087V22.458z M21.043,11.407H8.956V9.001h2.099v0.654c0,0.302,0.244,0.547,0.546,0.547
			c0.303,0,0.548-0.245,0.548-0.547V9.001h5.886v0.654c0,0.302,0.245,0.547,0.547,0.547s0.548-0.245,0.548-0.547V9.001h1.914V11.407
			z"/>
		<polygon fill="#8F9491" points="14.575,15.856 14.575,20.554 15.983,20.554 15.983,14.75 14.567,14.75 13.3,15.428 13.451,16.4 		
			"/>
	</g>
</g>
<g id="時間" display="none">
	<path display="inline" fill="#8F9491" d="M14.999,6C10.029,6,6,10.029,6,15s4.029,9,8.999,9C19.971,24,24,19.971,24,15
		S19.971,6,14.999,6z M14.999,22.328c-4.046,0-7.328-3.281-7.328-7.328s3.282-7.329,7.328-7.329c4.048,0,7.329,3.282,7.329,7.329
		S19.047,22.328,14.999,22.328z M15.684,9.913h-1.368v5.371l3.331,3.331l0.969-0.969l-2.932-2.93V9.913z"/>
</g>
<g id="閉じる" display="none">
	<circle display="inline" fill="#8F9491" cx="14.999" cy="15" r="9"/>
	<path display="inline" fill="#FFFFFF" d="M18.399,10.508L15,13.909l-3.399-3.4c-0.303-0.301-0.791-0.301-1.093,0
		c-0.301,0.301-0.301,0.79,0,1.091l3.4,3.4l-3.4,3.4c-0.301,0.303-0.301,0.79,0,1.093c0.302,0.301,0.79,0.301,1.093,0l3.399-3.4
		l3.399,3.4c0.303,0.301,0.79,0.301,1.093,0c0.301-0.303,0.301-0.79,0-1.093l-3.4-3.4l3.4-3.4c0.301-0.301,0.301-0.79,0-1.091
		C19.189,10.207,18.702,10.207,18.399,10.508z"/>
</g>
<g id="追加" display="none">
	<circle display="inline" fill="#3498DB" cx="14.999" cy="15" r="9"/>
	<path display="inline" fill="#FFFFFF" d="M14.227,10.419l0.002,3.809l-3.809-0.001C9.992,14.228,9.646,14.574,9.646,15
		c0.001,0.426,0.346,0.771,0.771,0.771h3.809v3.809c0.002,0.426,0.346,0.771,0.772,0.772c0.427-0.001,0.772-0.347,0.772-0.772
		v-3.809h3.809c0.426,0,0.771-0.345,0.771-0.772s-0.346-0.771-0.771-0.772h-3.809v-3.809c0-0.426-0.346-0.771-0.771-0.771
		C14.572,9.648,14.229,9.993,14.227,10.419z"/>
</g>
<g id="編集" display="none">
	<g display="inline">
		<g>
			<polygon fill="#8F9491" points="17.456,22.1 12.698,23.371 13.044,22.1 7.644,22.1 7.644,7.901 18.415,7.901 18.415,14.084 
				20.059,12.441 20.059,6.114 6,6.114 6,23.887 20.059,23.887 20.059,19.574 			"/>
			<polygon fill="#8F9491" points="14.644,19.416 13.9,22.158 16.658,21.43 			"/>
			<polygon fill="#8F9491" points="21.644,12.055 15.07,18.629 15.085,18.643 17.43,20.984 17.444,20.984 24,14.416 			"/>
			<path fill="#8F9491" d="M16.758,9.872H9.371c-0.228,0-0.43,0.187-0.43,0.43c0,0.228,0.188,0.43,0.43,0.43h7.387
				c0.228,0,0.43-0.188,0.43-0.43C17.188,10.07,16.985,9.872,16.758,9.872z"/>
			<path fill="#8F9491" d="M16.758,12.485H9.371c-0.228,0-0.43,0.188-0.43,0.431c0,0.228,0.188,0.43,0.43,0.43h7.387
				c0.228,0,0.43-0.188,0.43-0.43C17.188,12.684,16.985,12.485,16.758,12.485z"/>
			<path fill="#8F9491" d="M17.188,15.529c0-0.228-0.188-0.43-0.43-0.43H9.371c-0.228,0-0.43,0.188-0.43,0.43
				c0,0.229,0.188,0.43,0.43,0.43h7.387C16.985,15.955,17.188,15.758,17.188,15.529z"/>
		</g>
	</g>
</g>
<g id="クリップ" display="none">
	<path display="inline" fill="#8F9491" d="M22.603,7.397c-1.865-1.862-4.897-1.862-6.759,0l-5.416,5.418
		c-0.565,0.564-0.876,1.313-0.876,2.114c0,0.798,0.312,1.547,0.874,2.112c0.582,0.58,1.348,0.871,2.113,0.871
		c0.765,0,1.528-0.288,2.111-0.871l2.534-2.534c0.468-0.472,0.7-1.08,0.7-1.689c0-0.611-0.232-1.222-0.7-1.688l-4.224,4.223
		c-0.23,0.233-0.61,0.233-0.846-0.003c-0.151-0.151-0.175-0.328-0.175-0.42c0-0.094,0.023-0.271,0.175-0.423l5.417-5.42
		c0.93-0.931,2.447-0.931,3.381,0c0.931,0.931,0.931,2.447,0,3.378l-5.42,5.42l-3.028,3.028c-0.93,0.931-2.447,0.931-3.378,0
		c-0.932-0.931-0.932-2.447,0-3.378L9.2,17.42c-0.539-0.717-0.838-1.623-0.838-2.538l-0.964,0.964c-1.864,1.862-1.864,4.896,0,6.757
		C8.328,23.533,9.553,24,10.776,24c1.223,0,2.447-0.467,3.378-1.397l8.448-8.448C24.466,12.292,24.466,9.262,22.603,7.397z"/>
</g>
<g id="メール" display="none">
	<path display="inline" fill="#FFFFFF" d="M15.03,17.174c-0.101,0-0.201-0.024-0.291-0.075L6,12.21v8.04c0,0.827,0.673,1.5,1.5,1.5
		h15c0.827,0,1.5-0.673,1.5-1.5v-8.007l-8.68,4.855C15.23,17.149,15.13,17.174,15.03,17.174z"/>
	<path display="inline" fill="#FFFFFF" d="M22.5,8.25h-15C6.673,8.25,6,8.923,6,9.75v0.886l9.03,5.052L24,10.669V9.75
		C24,8.923,23.327,8.25,22.5,8.25z"/>
</g>
<g id="機能">
	<path fill="#8F9491" d="M24.691,15c0-1.496,0.921-2.677,2.31-3.49c-0.251-0.836-0.579-1.635-0.988-2.389
		c-1.553,0.409-2.814-0.203-3.872-1.259c-1.058-1.06-1.383-2.317-0.974-3.873C20.413,3.58,19.613,3.25,18.776,3
		C17.964,4.387,16.497,5.309,15,5.309S12.038,4.387,11.224,3C10.39,3.25,9.59,3.58,8.836,3.988c0.406,1.557,0.082,2.814-0.974,3.874
		C6.803,8.92,5.542,9.53,3.988,9.124c-0.408,0.751-0.74,1.551-0.989,2.387c1.389,0.813,2.31,1.994,2.31,3.49
		s-0.921,2.964-2.31,3.774c0.25,0.836,0.582,1.636,0.989,2.39c1.556-0.406,2.815-0.082,3.874,0.977
		c1.056,1.058,1.38,2.317,0.974,3.872c0.754,0.408,1.554,0.74,2.39,0.987c0.813-1.386,2.277-2.308,3.774-2.308
		s2.964,0.922,3.776,2.308c0.837-0.25,1.637-0.579,2.391-0.987c-0.409-1.555-0.084-2.814,0.974-3.872
		c1.058-1.059,2.319-1.671,3.872-1.262c0.409-0.754,0.737-1.554,0.988-2.39C25.612,17.677,24.691,16.496,24.691,15z M15,20.22
		c-2.882,0-5.22-2.338-5.22-5.22c0-2.881,2.338-5.217,5.22-5.217c2.883,0,5.218,2.336,5.218,5.217
		C20.218,17.882,17.883,20.22,15,20.22z"/>
</g>
</svg>
