<?xml version="1.0" encoding="utf-8"?><!-- Generator: Adobe Illustrator 16.0.0, SVG Export Plug-In . SVG Version: 6.00 Build 0)  --><!DOCTYPE svg PUBLIC "-//W3C//DTD SVG 1.1//EN" "http://www.w3.org/Graphics/SVG/1.1/DTD/svg11.dtd"><svg version="1.1" xmlns="http://www.w3.org/2000/svg" xmlns:xlink="http://www.w3.org/1999/xlink" x="0px" y="0px" width="100px" height="100px" viewBox="0 0 100 100" enable-background="new 0 0 100 100" xml:space="preserve"><path fill="#0288D1" d="M82.327,25.999H17.673c-2.485,0-4.5-2.015-4.5-4.5s2.015-4.5,4.5-4.5h64.654c2.485,0,4.5,2.015,4.5,4.5S84.813,25.999,82.327,25.999z"/><path fill="#0288D1" d="M82.327,83.001H17.673c-2.485,0-4.5-2.015-4.5-4.5s2.015-4.5,4.5-4.5h64.654c2.485,0,4.5,2.015,4.5,4.5S84.813,83.001,82.327,83.001z"/><path fill="#0288D1" d="M82.327,54.5H17.673c-2.485,0-4.5-2.015-4.5-4.5s2.015-4.5,4.5-4.5h64.654c2.485,0,4.5,2.015,4.5,4.5S84.813,54.5,82.327,54.5z"/></svg>