<?xml version="1.0" encoding="utf-8"?>
<!-- Generator: Adobe Illustrator 16.0.0, SVG Export Plug-In . SVG Version: 6.00 Build 0)  -->
<!DOCTYPE svg PUBLIC "-//W3C//DTD SVG 1.1//EN" "http://www.w3.org/Graphics/SVG/1.1/DTD/svg11.dtd">
<svg version="1.1" xmlns="http://www.w3.org/2000/svg" xmlns:xlink="http://www.w3.org/1999/xlink" x="0px" y="0px" width="30px"
	 height="30px" viewBox="0 0 30 30" enable-background="new 0 0 30 30" xml:space="preserve">
<circle display="inline" fill="#42A5F5" cx="14.999" cy="15" r="9"/>
<path display="inline" fill="#FFFFFF" d="M14.227,10.419l0.002,3.809l-3.809-0.001C9.992,14.228,9.646,14.574,9.646,15
	c0.001,0.426,0.346,0.771,0.771,0.771h3.809v3.809c0.002,0.426,0.346,0.771,0.772,0.772c0.427-0.001,0.772-0.347,0.772-0.772
	v-3.809h3.809c0.426,0,0.771-0.345,0.771-0.772s-0.346-0.771-0.771-0.772h-3.809v-3.809c0-0.426-0.346-0.771-0.771-0.771
	C14.572,9.648,14.229,9.993,14.227,10.419z"/>
</svg>
