<?xml version="1.0" encoding="utf-8"?>
<!-- Generator: Adobe Illustrator 16.0.0, SVG Export Plug-In . SVG Version: 6.00 Build 0)  -->
<!DOCTYPE svg PUBLIC "-//W3C//DTD SVG 1.1//EN" "http://www.w3.org/Graphics/SVG/1.1/DTD/svg11.dtd">
<svg version="1.1" xmlns="http://www.w3.org/2000/svg" xmlns:xlink="http://www.w3.org/1999/xlink" x="0px" y="0px" width="30px"
	 height="30px" viewBox="0 0 30 30" enable-background="new 0 0 30 30" xml:space="preserve">
<path fill="#8F9491" d="M22.037,7.46h-2.908V6.547C19.129,6.245,18.883,6,18.581,6s-0.547,0.245-0.547,0.547V7.46h-5.886V6.547
	C12.148,6.245,11.903,6,11.601,6c-0.302,0-0.546,0.245-0.546,0.547V7.46H7.961c-0.302,0-0.547,0.245-0.547,0.547v15.446
	C7.414,23.756,7.66,24,7.961,24h14.076c0.303,0,0.549-0.244,0.549-0.547V8.007C22.586,7.705,22.34,7.46,22.037,7.46z
	 M21.043,22.458H8.956v-9.509h12.087V22.458z M21.043,11.407H8.956V9.001h2.099v0.654c0,0.302,0.244,0.547,0.546,0.547
	c0.303,0,0.548-0.245,0.548-0.547V9.001h5.886v0.654c0,0.302,0.245,0.547,0.547,0.547s0.548-0.245,0.548-0.547V9.001h1.914V11.407
	z"/>
<polygon fill="#8F9491" points="14.575,15.856 14.575,20.554 15.983,20.554 15.983,14.75 14.567,14.75 13.3,15.428 13.451,16.4 		
	"/>
</svg>
