<?xml version="1.0" encoding="utf-8"?>
<!-- Generator: Adobe Illustrator 16.0.0, SVG Export Plug-In . SVG Version: 6.00 Build 0)  -->
<!DOCTYPE svg PUBLIC "-//W3C//DTD SVG 1.1//EN" "http://www.w3.org/Graphics/SVG/1.1/DTD/svg11.dtd">
<svg version="1.1" xmlns="http://www.w3.org/2000/svg" xmlns:xlink="http://www.w3.org/1999/xlink" x="0px" y="0px" width="30px"
	 height="30px" viewBox="0 0 30 30" enable-background="new 0 0 30 30" xml:space="preserve">
<circle display="inline" fill="#8F9491" cx="14.999" cy="15" r="9"/>
<path display="inline" fill="#FFFFFF" d="M18.399,10.508L15,13.909l-3.399-3.4c-0.303-0.301-0.791-0.301-1.093,0
	c-0.301,0.301-0.301,0.79,0,1.091l3.4,3.4l-3.4,3.4c-0.301,0.303-0.301,0.79,0,1.093c0.302,0.301,0.79,0.301,1.093,0l3.399-3.4
	l3.399,3.4c0.303,0.301,0.79,0.301,1.093,0c0.301-0.303,0.301-0.79,0-1.093l-3.4-3.4l3.4-3.4c0.301-0.301,0.301-0.79,0-1.091
	C19.189,10.207,18.702,10.207,18.399,10.508z"/>
</svg>
