<?xml version="1.0" encoding="utf-8"?>
<!-- Generator: Adobe Illustrator 16.0.0, SVG Export Plug-In . SVG Version: 6.00 Build 0)  -->
<!DOCTYPE svg PUBLIC "-//W3C//DTD SVG 1.1//EN" "http://www.w3.org/Graphics/SVG/1.1/DTD/svg11.dtd">
<svg version="1.1" xmlns="http://www.w3.org/2000/svg" xmlns:xlink="http://www.w3.org/1999/xlink" x="0px" y="0px" width="30px"
	 height="30px" viewBox="0 0 30 30" enable-background="new 0 0 30 30" xml:space="preserve">
<path fill="#8F9491" d="M11.785,7.286c2.481,0,4.499,2.02,4.499,4.5c0,2.48-2.018,4.5-4.499,4.5c-2.48,0-4.5-2.02-4.5-4.5
	C7.286,9.305,9.305,7.286,11.785,7.286 M11.785,6C8.592,6,6,8.591,6,11.786c0,3.195,2.592,5.785,5.785,5.785
	c3.196,0,5.786-2.59,5.786-5.785C17.571,8.591,14.981,6,11.785,6L11.785,6z"/>
<path fill="#8F9491" d="M23.598,20.668c0.536,0.538,0.536,1.417,0,1.952l-0.978,0.978c-0.538,0.536-1.415,0.536-1.952,0
	l-4.19-4.189c-0.534-0.538-0.534-1.416,0-1.951l0.978-0.979c0.537-0.534,1.415-0.534,1.952,0L23.598,20.668z"/>
</svg>
